<?xml version="1.0" standalone="no"?>
<!DOCTYPE svg PUBLIC "-//W3C//DTD SVG 20010904//EN"
 "http://www.w3.org/TR/2001/REC-SVG-20010904/DTD/svg10.dtd">
<svg version="1.0" xmlns="http://www.w3.org/2000/svg"
 width="1024.000000pt" height="1024.000000pt" viewBox="0 0 1024.000000 1024.000000"
 preserveAspectRatio="xMidYMid meet">
<metadata>
Created by potrace 1.14, written by Peter Selinger 2001-2017
</metadata>
<g transform="translate(0.000000,1024.000000) scale(0.100000,-0.100000)"
fill="#000000" stroke="none">
<path d="M4858 10236 c-1 -2 -50 -6 -108 -10 -58 -3 -116 -8 -130 -11 -14 -2
-50 -6 -80 -9 -83 -8 -139 -16 -350 -51 -121 -20 -388 -84 -510 -122 -47 -15
-89 -28 -95 -29 -27 -5 -265 -89 -312 -110 -17 -8 -34 -14 -38 -14 -4 0 -21
-6 -38 -14 -18 -8 -81 -35 -142 -62 -237 -102 -562 -280 -780 -427 -103 -70
-378 -274 -415 -309 -14 -13 -37 -32 -51 -43 -94 -73 -362 -333 -491 -476 -96
-107 -188 -219 -279 -339 -43 -58 -83 -110 -88 -116 -5 -6 -52 -76 -104 -155
-220 -334 -397 -685 -532 -1054 -20 -55 -39 -107 -42 -115 -3 -8 -7 -19 -9
-25 -1 -5 -21 -68 -43 -140 -40 -132 -95 -341 -106 -405 -3 -19 -10 -51 -15
-70 -5 -19 -11 -53 -15 -75 -3 -23 -8 -52 -10 -65 -5 -24 -20 -125 -30 -197
-3 -18 -7 -57 -10 -85 -3 -29 -8 -66 -10 -83 -27 -178 -27 -794 0 -1013 3 -20
7 -55 9 -77 14 -119 21 -166 52 -335 54 -296 86 -421 179 -705 31 -94 114
-316 135 -360 5 -11 19 -42 30 -70 30 -68 184 -379 216 -435 64 -112 144 -243
208 -340 65 -99 268 -374 318 -431 13 -15 43 -51 68 -80 148 -175 422 -445
604 -594 27 -22 54 -45 60 -50 6 -6 61 -47 121 -93 61 -45 115 -85 120 -90
126 -96 399 -262 620 -377 243 -126 638 -291 795 -330 3 -1 12 -5 20 -8 12 -5
99 -31 145 -43 97 -27 246 -65 268 -69 15 -3 59 -12 97 -20 38 -8 82 -17 97
-19 16 -3 69 -12 118 -20 91 -16 127 -21 225 -31 30 -4 71 -8 90 -10 228 -26
860 -27 997 -1 10 2 50 7 88 10 39 4 80 8 90 10 11 2 43 7 70 10 28 4 73 11
100 16 28 5 64 12 80 15 473 77 1115 307 1559 559 54 31 100 56 103 56 5 0 92
56 263 168 334 220 659 501 940 812 41 45 82 90 90 99 8 9 33 39 55 66 22 28
42 52 45 55 3 3 36 43 72 90 430 557 740 1198 918 1900 12 47 24 97 26 113 1
15 6 31 8 36 3 5 8 26 11 47 3 22 8 45 11 53 2 8 7 30 10 50 3 20 9 61 14 91
18 104 25 153 35 250 4 30 8 71 11 90 25 223 26 844 0 1000 -2 14 -7 52 -10
85 -30 300 -118 697 -230 1036 -88 264 -252 641 -371 849 -21 36 -46 81 -57
100 -74 131 -200 322 -301 460 -74 101 -218 281 -252 316 -11 12 -40 45 -65
74 -112 131 -370 379 -540 519 -14 11 -32 27 -40 34 -26 24 -222 171 -290 217
-36 25 -69 49 -75 53 -83 66 -402 250 -620 357 -499 244 -1014 400 -1566 475
-25 3 -57 7 -70 10 -13 2 -60 7 -104 10 -44 4 -98 9 -120 12 -46 5 -642 13
-647 9z"/>
</g>
</svg>
