<svg width="77" height="25" viewBox="0 0 77 25" fill="none" xmlns="http://www.w3.org/2000/svg">
<g opacity="0.098">
<path d="M75.5655 7.74811C74.7472 6.54712 73.6154 5.60328 72.2338 5.15114C71.4846 4.90529 70.7009 4.78943 69.9171 4.78943H69.9118C69.0483 4.78943 68.2141 4.96464 67.4436 5.29526C67.4994 5.01268 67.5446 4.72444 67.5738 4.4249C67.603 4.1197 67.6136 3.80603 67.6083 3.46976C67.5977 2.55135 67.5791 1.63012 67.6376 0.711714C64.9037 0.0928506 61.8271 -0.0399649 59.7362 2.3055C59.4599 2.19247 59.173 2.10204 58.8727 2.03987C58.6017 1.98618 58.3201 1.94944 58.0385 1.93249C57.8366 1.92118 57.632 1.92118 57.446 1.93249C57.3451 1.93814 57.2388 1.94944 57.1352 1.96357L56.8589 2.00596C56.3063 1.44644 55.573 1.09886 54.7387 1.07908C53.8753 1.06777 53.0703 1.39275 52.4619 2.01726C51.8242 2.67286 51.4656 3.59127 51.447 4.60293C51.447 4.65662 51.447 4.71031 51.447 4.764C50.2062 4.73857 48.9735 5.14832 47.7938 5.99043C47.382 6.28432 47.0154 6.61494 46.6939 6.971C46.4973 6.7195 46.2768 6.4793 46.0244 6.26171C44.6482 5.04094 42.9292 4.57749 40.918 4.88551C39.7225 5.06637 38.7155 5.53546 37.8919 6.26736C36.3483 4.97029 34.5045 4.5125 32.5252 4.95051C31.9274 5.08332 31.3588 5.30657 30.8354 5.60611C30.3678 5.1794 29.7541 4.91942 29.0501 4.87986C28.447 4.84313 27.8678 4.95333 27.3311 5.19353C26.8024 4.9279 26.1993 4.82052 25.5564 4.90529C24.7673 5.00703 24.0898 5.39134 23.5956 5.97064C22.1477 4.93073 20.4553 4.56902 18.6646 4.93638C17.4584 5.18223 16.3718 5.78414 15.503 6.6319C14.7033 5.58633 13.5184 4.92508 12.1209 4.81769C10.9891 4.72726 9.96355 4.94486 9.08415 5.44221C8.53685 5.12289 7.91781 4.91377 7.25361 4.83465C6.38483 4.72726 5.51871 4.86008 4.72433 5.19071C4.1106 4.84313 3.39858 4.71596 2.66264 4.85443C1.16952 5.13702 0.0536573 6.54995 0.0191188 8.21438C0.00849156 8.7852 0.00849156 9.35038 0.0138052 9.89859C0.0138052 10.1218 0.0138052 10.3423 0.0138052 10.5598V11.6958C-0.00213567 12.6595 -0.00213567 13.6626 0.00317795 14.6545C0.00849156 15.6718 0.391072 16.5733 1.01808 17.2034C1.50162 18.2123 2.42619 18.9301 3.55533 19.06C4.66588 19.1929 5.75251 18.6446 6.42468 17.7206C7.00387 18.5514 7.91781 19.0742 8.98319 19.0798C8.9885 19.0798 8.99382 19.0798 8.99382 19.0798C10.03 19.0798 10.9492 18.5457 11.5364 17.7093C11.6427 17.8647 11.7675 18.0088 11.8977 18.1473C12.4955 18.7548 13.266 19.0855 14.0896 19.0855C14.1188 19.0855 14.1454 19.0855 14.1746 19.0855C15.2001 19.0544 16.0795 18.5457 16.6428 17.7375C16.8128 17.8704 16.9802 18.0032 17.1608 18.1219C18.2023 18.8085 19.4032 19.1448 20.5988 19.1448C21.89 19.1448 23.1679 18.7407 24.2173 17.9608C24.2678 18.0201 24.313 18.0823 24.3688 18.136C24.9666 18.7548 25.745 19.0911 26.5792 19.0911C26.6085 19.0911 26.6297 19.0911 26.6536 19.0911C28.0511 19.0544 29.1776 18.1105 29.6133 16.7457C30.8089 18.2236 32.5942 19.1448 34.6241 19.1505L34.8552 19.1392C35.0199 19.1335 35.2617 19.1222 35.5327 19.0742C36.6432 18.8933 37.589 18.492 38.3622 17.8647C39.2575 18.687 40.477 19.1448 41.7709 19.1448C42.1136 19.1448 42.4696 19.1137 42.8203 19.0487C43.349 18.9527 43.8511 18.7831 44.3081 18.557C45.2035 19.1222 46.2635 19.2776 47.3448 18.9527C47.8815 18.7972 48.3305 18.5005 48.6759 18.1162C49.6802 18.7661 50.8625 19.1392 52.1085 19.1392C52.2839 19.1392 52.4592 19.1335 52.6319 19.1137C54.125 18.9866 55.4614 18.3394 56.4763 17.3334C56.7632 17.7008 57.1086 18.0314 57.5018 18.2942C58.3015 18.834 59.3271 19.1166 60.3818 19.1166C61.232 19.1166 62.1008 18.93 62.8792 18.5514C63.6683 19.0092 64.6433 19.1759 65.7087 18.995C66.3118 18.8933 66.8352 18.5994 67.2364 18.1784C68.2008 18.7803 69.322 19.1335 70.5229 19.1335C70.5282 19.1335 70.5335 19.1335 70.5388 19.1335C72.2684 19.1335 73.8917 18.4129 75.1218 17.1074C76.3174 15.8329 76.9709 14.1628 76.9656 12.3938C76.9789 10.7407 76.4714 9.08192 75.5655 7.74811Z" fill="#231F20"/>
</g>
<path d="M70.2041 5.21597H70.1987C68.8624 5.21597 67.5951 5.63702 66.5244 6.41131C66.8963 5.69071 67.1381 4.8486 67.2178 3.92172C67.247 3.61653 67.2577 3.30286 67.2523 2.96658L67.2311 0.977173L65.3766 0.748278C63.7693 0.550468 61.5322 1.03086 60.0179 2.72638C59.7415 2.61335 59.4546 2.52292 59.1544 2.46075C58.8834 2.40706 58.6018 2.37032 58.3202 2.35337C58.1182 2.34206 57.9137 2.34206 57.7277 2.35337C57.6267 2.35902 57.5205 2.37032 57.4168 2.38445L57.1405 2.42684C56.5879 1.86732 55.8546 1.51974 55.0204 1.49996C54.1569 1.48865 53.3519 1.81363 52.7435 2.43814C52.1059 3.09374 51.7472 4.01215 51.7286 5.02381C51.7286 5.0775 51.7286 5.13119 51.7286 5.18488C50.5012 5.15945 49.2711 5.5692 48.0888 6.41131C47.677 6.7052 47.3103 7.03582 46.9889 7.39188C46.7923 7.14038 46.5717 6.90018 46.3193 6.68259C44.9431 5.46182 43.2242 4.99837 41.213 5.30639C40.0174 5.48725 39.0105 5.95634 38.1869 6.68824C36.6433 5.39682 34.7994 4.93903 32.8201 5.37139C32.2223 5.5042 31.6538 5.72745 31.1304 6.02699C30.6628 5.60028 30.0491 5.3403 29.345 5.30074C28.7419 5.26401 28.1627 5.37421 27.626 5.61441C27.0973 5.34878 26.4942 5.2414 25.8513 5.32617C25.0622 5.42791 24.3847 5.81222 23.8906 6.39152C22.432 5.35161 20.7396 4.9899 18.9489 5.35726C17.7427 5.60311 16.6561 6.20502 15.7873 7.05278C14.9876 6.00721 13.8027 5.34596 12.4052 5.23857C11.2734 5.14815 10.2479 5.36574 9.36845 5.86309C8.82115 5.54377 8.20212 5.33465 7.53791 5.25553C6.66914 5.14815 5.80302 5.28096 5.00863 5.61159C4.39491 5.26401 3.68288 5.13684 2.94695 5.27531C1.44851 5.5579 0.337963 6.97083 0.298111 8.63526C0.287483 9.20608 0.287483 9.77126 0.292797 10.3195C0.292797 10.5427 0.292797 10.7631 0.292797 10.9807V12.1167C0.292797 13.0832 0.287483 14.0892 0.298111 15.0811C0.314051 16.9037 1.53353 18.3704 3.19935 18.5625C4.30989 18.6953 5.39653 18.1471 6.0687 17.2231C6.64788 18.0539 7.56182 18.5766 8.6272 18.5823C8.63252 18.5823 8.63783 18.5823 8.63783 18.5823C9.67399 18.5823 10.5932 18.0482 11.1804 17.2118C11.2867 17.3672 11.4115 17.5113 11.5417 17.6498C12.1395 18.2573 12.91 18.5879 13.7336 18.5879C13.7628 18.5879 13.7894 18.5879 13.8186 18.5879C14.8441 18.5569 15.7235 18.0482 16.2868 17.24C16.4568 17.3728 16.6242 17.5056 16.8049 17.6243C17.8463 18.311 19.0472 18.6473 20.2428 18.6473C21.534 18.6473 22.8119 18.2432 23.8613 17.4633C23.9118 17.5226 23.957 17.5848 24.0128 17.6385C24.6106 18.2573 25.389 18.5936 26.2232 18.5936C26.2525 18.5936 26.2737 18.5936 26.2976 18.5936C27.6951 18.5569 28.8216 17.613 29.2573 16.2481C30.4529 17.7261 32.2383 18.6473 34.2681 18.6529L34.4992 18.6416C34.6639 18.636 34.9057 18.6247 35.1767 18.5766C36.2872 18.3958 37.2331 17.9945 38.0062 17.3672C38.9015 18.1895 40.1184 18.6473 41.4149 18.6473C41.7576 18.6473 42.1136 18.6162 42.4643 18.5512C42.993 18.4551 43.4952 18.2856 43.9521 18.0595C44.8475 18.6247 45.9075 18.7801 46.9889 18.4551C47.5255 18.2997 47.9745 18.003 48.3199 17.6187C49.3242 18.2686 50.5065 18.6416 51.7525 18.6416C51.9279 18.6416 52.1032 18.636 52.2759 18.6162C53.769 18.489 55.1054 17.8419 56.1203 16.8359C56.4072 17.2033 56.7526 17.5339 57.1458 17.7967C57.9455 18.3364 58.9711 18.619 60.0258 18.619C60.876 18.619 61.7448 18.4325 62.5232 18.0539C63.3123 18.5116 64.2873 18.6784 65.3527 18.4975C65.9558 18.3958 66.4792 18.1019 66.8804 17.6808C67.8448 18.2828 68.966 18.636 70.1669 18.636C70.1722 18.636 70.1775 18.636 70.1828 18.636C71.9124 18.636 73.5357 17.9154 74.7658 16.6098C75.9614 15.3354 76.6149 13.6653 76.6096 11.8963C76.6123 8.22268 73.7323 5.22162 70.2041 5.21597Z" fill="white"/>
<path d="M27.3392 8.53917C27.1373 7.81858 26.7069 7.4823 26.0931 7.56425C25.506 7.64337 25.1287 8.12377 25.1287 8.85567C25.1234 10.9044 25.1234 12.9616 25.1287 15.0104C25.134 15.7847 25.6202 16.3386 26.2552 16.3272C26.8982 16.3103 27.3418 15.7621 27.3498 14.9737C27.3551 13.8122 27.3498 12.6536 27.3498 11.4922C27.3498 10.2601 27.8679 9.60452 29.0236 9.35867C29.1936 9.32194 29.361 9.27955 29.5151 9.20325C29.8711 9.02239 30.0624 8.58439 29.9774 8.16898C29.8871 7.74228 29.6054 7.57273 29.2229 7.55577C28.6437 7.51904 28.1628 7.75923 27.7696 8.20572C27.6341 8.35549 27.5331 8.53635 27.3923 8.73416C27.3604 8.63525 27.3498 8.58721 27.3392 8.53917ZM34.8633 16.3357C35.8675 16.1747 36.7576 15.7649 37.3766 14.8691C37.7034 14.4 37.637 13.8659 37.2464 13.4929C36.8798 13.1453 36.3219 13.1453 35.9393 13.5042C35.8091 13.6257 35.6975 13.7698 35.5673 13.8885C35.0307 14.3944 34.4116 14.5865 33.7182 14.4113C32.4456 14.0976 31.7389 12.4926 32.2011 10.9977C32.5944 9.73451 33.5986 9.11 34.7889 9.48301C35.2007 9.61017 35.5673 9.94645 35.9101 10.246C36.4228 10.6981 37.0419 10.6783 37.4085 10.1443C37.6954 9.72321 37.629 9.17782 37.1773 8.73698C36.0562 7.63207 34.7251 7.24493 33.2373 7.57555C31.2314 8.01356 29.7436 9.97471 29.8446 12.0009C29.9694 14.4961 31.8292 16.3725 34.2735 16.3781C34.4116 16.3725 34.6428 16.3725 34.8633 16.3357ZM22.1425 12.5491C23.2743 12.2721 24.0022 11.4555 23.9172 10.181C23.8721 9.48866 23.5346 8.94892 23.0431 8.52787C21.9565 7.59533 20.7105 7.29579 19.3395 7.57273C17.6365 7.91466 16.2576 9.35867 15.9468 11.0881C15.6253 12.891 16.3985 14.7024 17.9128 15.6999C19.4006 16.6748 21.4251 16.607 22.7589 15.5304C23.1919 15.1828 23.3168 14.66 23.0644 14.2248C22.8173 13.7981 22.3045 13.6653 21.829 13.9111C21.6138 14.0185 21.4118 14.1626 21.1913 14.2587C19.9745 14.8069 18.7497 14.3068 18.3167 13.0916C18.0643 12.3823 18.035 11.6618 18.2662 10.9327C18.6541 9.69495 19.839 9.07609 20.9814 9.53105C21.1621 9.60452 21.3826 9.71191 21.473 9.86733C21.5925 10.0906 21.6935 10.4155 21.6244 10.6303C21.5686 10.8225 21.2817 11.0401 21.0771 11.0627C20.4846 11.1361 19.8815 11.0994 19.2917 11.1474C18.8799 11.1842 18.6594 11.4526 18.6488 11.82C18.6328 12.2467 18.8055 12.5123 19.2359 12.5886C19.6743 12.6678 20.1552 12.7158 20.6334 12.7101C21.1488 12.7186 21.6669 12.6649 22.1425 12.5491ZM69.5559 9.48301C70.6956 9.12695 71.7663 9.74016 72.1303 10.9496C72.3668 11.7239 72.3269 12.4812 72.0055 13.216C71.6229 14.0863 70.964 14.5074 70.0607 14.4594C68.7934 14.4 68.0999 13.1623 68.0707 11.9217C68.0574 10.8677 68.5303 9.80798 69.5559 9.48301ZM65.8603 11.9133C65.8656 14.3718 67.805 16.3725 70.1829 16.3809C72.5501 16.3866 74.5108 14.3604 74.5055 11.9076C74.5002 9.46605 72.566 7.471 70.1988 7.471C67.8104 7.471 65.8549 9.46605 65.8603 11.9133ZM41.5531 14.3718C41.1466 14.2107 40.8836 13.8546 40.8836 13.4647C40.8836 12.9786 41.1812 12.7554 41.5611 12.6338C42.2705 12.4106 42.9931 12.3823 43.7423 12.4841C43.9256 14.01 42.8656 14.8945 41.5531 14.3718ZM46.4337 16.2764C46.7312 16.186 46.9252 16.0108 46.9624 15.6688C47.0075 15.3212 46.896 15.0076 46.5904 14.9058C46.0033 14.708 45.9315 14.2502 45.9315 13.7105C45.9315 12.6649 45.9315 11.6137 45.9262 10.5653C45.9209 9.68647 45.5835 8.97718 44.9565 8.42614C43.9416 7.53034 42.7646 7.35514 41.5079 7.54729C40.5887 7.68576 39.7731 8.05878 39.146 8.82176C38.9096 9.11 38.8591 9.43497 39.0159 9.7656C39.1859 10.1273 39.4781 10.3477 39.8554 10.2658C40.1423 10.2064 40.4346 10.0623 40.6843 9.88711C41.3432 9.41236 42.0473 9.2852 42.8098 9.47171C43.5032 9.64126 43.8592 10.3082 43.6732 11.0768C43.5484 11.0768 43.4129 11.0655 43.2854 11.0768C42.4299 11.1559 41.5664 11.1842 40.7215 11.3339C40.0175 11.4555 39.3852 11.8143 38.968 12.4812C38.3942 13.4081 38.5669 14.838 39.3347 15.601C40.6976 16.9602 43.4554 16.412 44.1355 15.0132C44.6403 16.0899 45.5038 16.5533 46.4337 16.2764ZM62.348 13.4873C62.332 13.5523 62.3134 13.6257 62.2868 13.6851C62.0345 14.2728 61.5217 14.3831 61.001 14.4537C60.4829 14.5187 59.9861 14.448 59.6433 13.962C59.3218 13.4986 59.4573 12.9164 59.9861 12.7186C60.4935 12.5321 61.0355 12.4728 61.5642 12.3569C62.4728 12.4304 62.5578 12.5434 62.348 13.4873ZM65.0313 16.2707C65.3741 16.2114 65.568 15.9712 65.5893 15.5982C65.6105 15.2421 65.4538 14.9737 65.1562 14.8635C64.6647 14.6939 64.5637 14.3237 64.569 13.8405C64.5797 12.7949 64.5744 11.7437 64.569 10.6953C64.5637 9.64408 64.1466 8.81328 63.3416 8.21137C62.3719 7.49078 61.2852 7.35231 60.1455 7.52469C59.2262 7.66316 58.4106 8.02487 57.7836 8.78785C57.5232 9.10152 57.4727 9.44345 57.664 9.80516C57.8606 10.1725 58.1821 10.3534 58.5726 10.2375C58.8489 10.1527 59.1146 10.0086 59.3511 9.84189C60.0153 9.3728 60.7273 9.26542 61.4818 9.47453C62.146 9.66104 62.4781 10.3449 62.2762 11.0627C61.8432 11.0627 61.4021 11.0372 60.9638 11.0683C60.0631 11.1277 59.1598 11.2237 58.3548 11.7183C56.8829 12.6197 56.8616 14.9115 58.299 15.8836C59.5052 16.7003 61.8485 16.5138 62.773 15.0132C63.1317 16.234 64.1572 16.4205 65.0313 16.2707ZM53.2138 13.7868C52.3238 14.8861 50.5995 14.6402 49.9513 13.329C49.5793 12.5773 49.5448 11.772 49.7759 10.9779C50.0735 9.94928 50.8759 9.34172 51.7925 9.37845C52.7276 9.41519 53.4902 10.0934 53.7319 11.1446C53.793 11.4018 53.8063 11.6731 53.8382 11.9387C53.8276 12.6338 53.6416 13.264 53.2138 13.7868ZM53.6363 8.10682C52.1378 7.11494 50.6553 7.29579 49.2579 8.29332C47.8444 9.30215 47.2174 10.7829 47.4592 12.5858C47.7754 14.9369 49.8264 16.559 52.1246 16.3668C54.351 16.1803 56.0354 14.2615 56.0407 11.8822C56.0513 9.61583 56.046 7.34948 56.0407 5.08314C56.0407 4.32016 55.5943 3.77759 54.97 3.76629C54.3217 3.75499 53.8488 4.28342 53.8302 5.07184C53.8143 5.95068 53.8249 6.8267 53.8249 7.70554C53.8249 7.85531 53.8249 7.99943 53.8249 8.20572C53.7266 8.1492 53.6814 8.13225 53.6363 8.10682ZM4.65801 8.51091C6.04487 6.94821 8.43865 7.22515 9.30743 8.83024C10.046 7.78467 11.0476 7.3947 12.2432 7.49078C13.4786 7.58686 14.3952 8.38658 14.6768 9.67234C14.7619 10.0567 14.8176 10.4551 14.823 10.8451C14.8389 12.2467 14.8336 13.6512 14.8283 15.0528C14.8283 15.779 14.3713 16.3103 13.7523 16.3272C13.1439 16.3442 12.647 15.8271 12.6311 15.0952C12.6098 13.9479 12.6258 12.7977 12.6205 11.6504C12.6205 11.3368 12.6152 11.0259 12.5806 10.7179C12.4903 9.85885 11.9616 9.34737 11.2124 9.37845C10.418 9.40954 9.73517 10.099 9.72455 10.9044C9.71392 12.1365 9.71923 13.3686 9.71923 14.6006C9.71923 14.7561 9.72455 14.9143 9.71923 15.0697C9.69798 15.796 9.23569 16.3272 8.61931 16.3272C7.99496 16.3272 7.52471 15.8158 7.51408 15.0782C7.49814 13.8574 7.51408 12.6423 7.50345 11.4244C7.50345 11.1305 7.49283 10.8225 7.42906 10.5399C7.25371 9.72886 6.7011 9.2965 5.99704 9.39258C5.2186 9.49431 4.62082 10.1188 4.6155 10.8903C4.60488 12.2241 4.61019 13.5523 4.61019 14.8889C4.61019 15.0584 4.6155 15.2308 4.57565 15.3947C4.45078 15.9768 3.92739 16.3922 3.404 16.3329C2.81153 16.2594 2.3891 15.7677 2.38378 15.0754C2.37316 13.7162 2.37847 12.3569 2.37847 10.9948C2.37847 10.2319 2.36784 9.46323 2.38378 8.69742C2.39441 8.08421 2.77699 7.59816 3.27913 7.50773C3.83706 7.40035 4.29403 7.69424 4.53049 8.3018C4.59159 8.35832 4.62613 8.43179 4.65801 8.51091Z" fill="#162242"/>
<path d="M63.0653 6.06916C63.0653 6.06916 64.1413 5.79222 64.763 4.80034C64.7603 4.80034 64.3166 5.86569 63.0653 6.06916ZM60.6343 6.14263C60.6343 6.14263 60.7857 6.38848 60.8946 6.33479L60.9239 6.30936C60.9637 6.31501 61.0142 6.32631 61.07 6.33479C61.9335 6.4563 62.8952 6.48456 63.7029 6.08329C64.7284 5.5718 65.196 4.45276 65.2917 3.30546C65.3129 3.06526 65.3209 2.82507 65.3209 2.58487C65.3235 2.58204 61.2267 2.01122 60.6343 6.14263Z" fill="#009284"/>
<path d="M62.1273 5.36606C61.4233 5.94253 61.418 5.97362 60.8919 6.3325L60.6714 6.25903C61.1895 5.92275 61.1735 5.91145 61.6916 5.52431C61.4844 4.58612 62.0025 3.9616 62.0025 3.9616C61.6305 4.58612 61.6757 5.29541 61.6969 5.51865C61.9493 5.3265 62.2044 5.13999 62.4461 4.94783C62.2708 4.14811 62.7118 3.61967 62.7118 3.61967C62.401 4.14811 62.4302 4.74437 62.4515 4.94783C62.7224 4.73872 62.9881 4.52678 63.2299 4.33462C63.1449 3.87118 63.3999 3.57164 63.3999 3.57164C63.2299 3.85987 63.2246 4.18485 63.2352 4.32897C63.3362 4.24419 63.4371 4.15941 63.5407 4.08312C63.5407 4.08312 63.5407 4.08312 63.5354 4.08312C63.5354 4.08312 63.5354 4.08312 63.5407 4.08312C64.3298 3.43882 64.8585 2.96973 64.8585 2.96973C64.4122 3.37948 63.9951 3.75814 63.6018 4.10572C63.732 4.15376 64.0243 4.23289 64.3298 4.13116C64.3298 4.13116 63.9924 4.31766 63.5965 4.1142C63.3441 4.33744 63.0944 4.55221 62.8579 4.75002C63.0333 4.82349 63.5567 4.99587 64.1093 4.80936C64.1093 4.80936 63.5301 5.12869 62.8526 4.75002C62.6082 4.97609 62.3664 5.1739 62.1273 5.36606C62.2841 5.43105 62.9376 5.68538 63.6258 5.45083C63.6337 5.45649 62.9297 5.83515 62.1273 5.36606Z" fill="#04695C"/>
<g opacity="0.2">
<path d="M58.3628 4.31477C58.3123 4.31477 58.2778 4.32042 58.2778 4.32042C58.3017 4.31477 58.3309 4.31477 58.3628 4.31477C58.7401 4.29781 60.3182 4.33172 60.6955 6.02159C60.3129 4.43911 58.8091 4.30912 58.3628 4.31477ZM60.9851 6.28722C60.9744 6.21375 60.9452 6.1431 60.9293 6.07811C60.924 6.0668 60.924 6.06115 60.9187 6.04702C60.9133 6.02159 60.908 5.99898 60.8974 5.98203C60.8921 5.97072 60.8868 5.95094 60.8815 5.93964C60.8761 5.91421 60.8655 5.8916 60.8602 5.86617C60.8549 5.86051 60.8549 5.84921 60.8496 5.84073C60.8496 5.83508 60.8443 5.82943 60.8443 5.82378C60.8389 5.80682 60.8283 5.78139 60.823 5.76443C60.8177 5.75313 60.8124 5.739 60.8071 5.72205C60.7964 5.69661 60.7858 5.67401 60.7778 5.65705C60.7725 5.64575 60.7672 5.6401 60.7672 5.62597C60.738 5.56097 60.7061 5.49315 60.6716 5.43381C60.6716 5.43381 60.6716 5.42816 60.6663 5.42816C60.6609 5.42251 60.6556 5.4112 60.6503 5.40272C60.6397 5.38577 60.6291 5.36599 60.6158 5.34903C60.6105 5.34338 60.6052 5.33208 60.5998 5.3236C60.5892 5.30665 60.5786 5.28121 60.56 5.26426C60.5547 5.25861 60.5494 5.25295 60.5494 5.2473C60.5334 5.22187 60.5201 5.20491 60.5042 5.18231C60.4989 5.17666 60.4989 5.17666 60.4936 5.171C60.4776 5.14557 60.459 5.12862 60.4431 5.10601C60.4431 5.10036 60.4378 5.10036 60.4378 5.09471C60.4218 5.06927 60.3979 5.04667 60.382 5.02971L60.3767 5.02406C60.3315 4.97602 60.2863 4.92798 60.2412 4.88559C60.2359 4.88559 60.2359 4.87994 60.2305 4.87994C60.2146 4.86298 60.1907 4.8432 60.1747 4.82625L60.1694 4.8206L60.1641 4.81495C60.1243 4.77821 60.0791 4.74995 60.0393 4.71321C60.0339 4.71321 60.0339 4.70756 60.0286 4.70756C59.9835 4.67083 59.9383 4.64257 59.8931 4.61148C59.8931 4.61148 59.8878 4.61148 59.8878 4.60583C59.8373 4.57475 59.7869 4.54649 59.7417 4.52106C59.6912 4.49562 59.6407 4.47302 59.5956 4.44758H59.5902C59.5902 4.44758 59.5849 4.44758 59.5849 4.44193C59.5398 4.42498 59.4999 4.4052 59.4547 4.38824C59.4494 4.38824 59.4441 4.38259 59.4441 4.38259C59.399 4.36563 59.3538 4.34585 59.3033 4.33455H59.298C59.2475 4.31759 59.2024 4.30346 59.1519 4.29216C59.1466 4.29216 59.1466 4.29216 59.1412 4.29216C59.0961 4.28086 59.0456 4.26673 59.0004 4.25542H58.9792H58.9739C58.934 4.24977 58.8942 4.23847 58.8543 4.22999C58.849 4.22999 58.8437 4.22999 58.8437 4.22999C58.8038 4.22434 58.764 4.21869 58.7241 4.21304C58.7188 4.21304 58.7188 4.21304 58.7135 4.21304C58.6683 4.20738 58.6285 4.20173 58.5886 4.20173C58.5833 4.20173 58.5833 4.20173 58.578 4.20173C58.5382 4.19608 58.493 4.19608 58.4531 4.19608H58.4478C58.3814 4.19043 58.323 4.19043 58.2672 4.19043C58.2618 4.19043 58.2618 4.19043 58.2565 4.19043C58.1821 4.19043 58.121 4.19043 58.0759 4.19608C58.0599 4.19608 58.0413 4.19608 58.0254 4.20173C58.0148 4.20173 58.0041 4.20173 57.9908 4.20738C57.951 4.21304 57.9351 4.21304 57.9351 4.21304C57.9404 4.31477 57.9457 4.4165 57.9563 4.51823C57.9962 4.8432 58.0679 5.16818 58.2034 5.46207C58.3044 5.68531 58.4452 5.88312 58.6258 6.03854C58.772 6.17136 58.942 6.27309 59.128 6.33808C59.2847 6.39743 59.4494 6.42851 59.6115 6.44547C59.7364 6.45677 59.8586 6.45677 59.9888 6.43982C60.0286 6.43416 60.0685 6.43416 60.1083 6.42286C60.3793 6.36917 60.7327 6.42286 61.0037 6.39178C61.1445 6.39743 61.2693 6.40308 61.3809 6.39178C61.1312 6.34656 61.0807 6.31548 60.9851 6.28722Z" fill="#231F20"/>
</g>
<path d="M60.9848 6.39497C60.9901 6.39497 60.9901 6.39497 60.9848 6.39497V6.39497ZM58.3626 4.31513C58.3121 4.31513 58.2775 4.32078 58.2775 4.32078C58.3015 4.31513 58.3307 4.31513 58.3626 4.31513C58.7398 4.29818 60.318 4.33209 60.6952 6.02195C60.3127 4.43947 58.8089 4.30948 58.3626 4.31513ZM60.9609 6.36388C60.9609 6.36388 60.9609 6.35823 60.9609 6.36388C60.9609 6.27345 60.9211 6.17737 60.8998 6.09825C60.8786 6.01913 60.8493 5.93718 60.8201 5.8637C60.7696 5.71958 60.7006 5.58112 60.6288 5.4483C60.4933 5.21375 60.3233 5.00464 60.1267 4.83509C59.946 4.67967 59.7494 4.5525 59.5342 4.46208C59.3429 4.3773 59.141 4.31231 58.9364 4.26992C58.7611 4.23318 58.5857 4.21057 58.4077 4.20492C58.2829 4.19927 58.1606 4.19927 58.0305 4.20492C57.9853 4.20492 57.9348 4.21057 57.8896 4.21623C57.895 4.31796 57.9003 4.41969 57.9109 4.52142C57.9508 4.84639 58.0225 5.17137 58.158 5.46526C58.2589 5.6885 58.3998 5.88631 58.5804 6.04173C58.7265 6.17455 58.8966 6.27628 59.0826 6.34127C59.2393 6.40062 59.404 6.4317 59.5661 6.44866C59.691 6.45996 60.682 6.4317 60.9583 6.39497C60.9689 6.39497 60.9742 6.39497 60.9795 6.39497C60.9742 6.39497 60.9609 6.38931 60.9609 6.36388Z" fill="#009284"/>
<path d="M59.0401 5.91396C59.4731 6.027 59.869 5.84897 59.9593 5.80093C59.8079 5.69354 59.6538 5.57768 59.4917 5.459C59.0905 5.71615 58.7186 5.54943 58.7186 5.54943C59.0693 5.63985 59.3828 5.50704 59.4864 5.459C59.335 5.34596 59.1756 5.22445 59.0082 5.09164C58.7717 5.23575 58.5565 5.13402 58.5565 5.13402C58.7478 5.18206 58.9285 5.12272 59.0029 5.08598C58.7505 4.88817 58.4742 4.67058 58.1846 4.43604C58.1846 4.43604 58.5273 4.70167 59.0401 5.0662C59.1012 5.10859 59.1702 5.15663 59.2367 5.20467C59.2367 5.11424 59.226 4.91643 59.1065 4.74123C59.1065 4.74123 59.2765 4.91643 59.2367 5.20467C59.3934 5.31205 59.5635 5.43356 59.7388 5.55225C59.7441 5.42509 59.7388 5.06055 59.5316 4.74688C59.5316 4.74688 59.8238 5.05207 59.7468 5.5579C59.9035 5.66529 60.0629 5.76702 60.225 5.87722C60.2303 5.73876 60.2303 5.30075 59.9832 4.92774C59.9832 4.92774 60.326 5.28945 60.2303 5.87722C60.4269 6.00439 60.6235 6.12873 60.8228 6.25024C60.9636 6.33501 61.0885 6.37175 61.3701 6.37175C61.2054 6.38871 60.9822 6.45088 60.7723 6.3548C60.5066 6.23328 60.2595 6.01287 59.962 5.80093C59.4864 6.11742 59.0401 5.91396 59.0401 5.91396Z" fill="#04695C"/>
<path d="M75.305 23.4797C75.2146 23.3468 75.1801 23.1971 75.2146 23.0219C75.3714 23.0162 75.4963 23.0812 75.5866 23.214C75.6716 23.3468 75.7221 23.5079 75.7327 23.6944C75.5361 23.6831 75.3953 23.6125 75.305 23.4797ZM75.6105 24.1522C75.5653 24.2172 75.5095 24.2737 75.4298 24.302H75.4245C75.3342 24.2596 75.2678 24.1748 75.2226 24.0505C75.1721 23.9233 75.1429 23.7849 75.1323 23.6294C75.212 23.7199 75.297 23.7849 75.3979 23.8329C75.4989 23.8809 75.5999 23.9064 75.7088 23.9064C75.6822 24.0081 75.6557 24.0872 75.6105 24.1522ZM73.052 23.4429C72.9962 23.6464 72.9059 23.864 72.781 24.0985C72.7651 23.9911 72.7597 23.8696 72.7518 23.7368C72.7518 23.604 72.7624 23.4797 72.7863 23.3525C72.8155 23.2253 72.8527 23.1123 72.9165 23.0106C72.9723 22.9088 73.0573 22.8297 73.1583 22.7817C73.1689 22.7873 73.1742 22.793 73.1875 22.7986C73.1928 22.8043 73.2034 22.8156 73.2167 22.8297C73.1583 23.0275 73.1078 23.2395 73.052 23.4429ZM76.5802 23.0275C76.5351 23.0162 76.5005 23.0388 76.4686 23.0925C76.4075 23.2366 76.3331 23.3581 76.2428 23.4542C76.1525 23.5503 76.0462 23.6238 75.9107 23.6718C75.9107 23.5588 75.8948 23.4429 75.8655 23.3412C75.8363 23.2338 75.7991 23.1377 75.746 23.0416C75.6902 22.9343 75.6052 22.8382 75.4936 22.7647C75.382 22.6856 75.2624 22.6573 75.1509 22.6743C75.1402 22.6206 75.1057 22.5895 75.0499 22.5895C74.9197 22.6489 74.8241 22.7449 74.7577 22.8834C74.7125 22.9795 74.6726 23.0869 74.6567 23.1971C74.6461 23.2338 74.6275 23.2762 74.6115 23.3101C74.5823 23.3892 74.5451 23.4655 74.5053 23.5447C74.4309 23.6831 74.3591 23.8159 74.2794 23.9487C74.1997 24.0816 74.1094 24.1776 74.0031 24.237C73.9526 24.1946 73.9075 24.1296 73.8729 24.0392C73.8384 23.9487 73.8065 23.847 73.7826 23.7396C73.7614 23.6323 73.7374 23.5164 73.7268 23.4034C73.7109 23.2903 73.6976 23.1858 73.6976 23.0897C73.7268 23.0586 73.7374 23.0303 73.7374 22.9993C73.7321 22.9682 73.7162 22.9399 73.6816 22.8919C73.6524 22.8495 73.6073 22.8014 73.5621 22.7591C73.5116 22.7167 73.4558 22.6743 73.3867 22.6375C73.3203 22.6008 73.2459 22.5782 73.1715 22.5584C73.1104 22.5415 73.0467 22.5415 72.9803 22.5528C72.9138 22.5641 72.8448 22.5952 72.7783 22.6319C72.7119 22.6686 72.6482 22.7223 72.5977 22.7817C72.5472 22.841 72.4967 22.9201 72.4622 22.9993C72.417 23.101 72.3825 23.2027 72.3559 23.3045C72.3559 23.3045 72.3559 23.3045 72.3559 23.3101C72.3214 23.3892 72.2895 23.4655 72.2549 23.5447C72.239 23.5757 72.2151 23.6294 72.1752 23.6944C72.1407 23.7594 72.0955 23.8329 72.0451 23.912C72.0105 23.9544 71.9707 23.9968 71.9335 24.0335C71.8936 24.0703 71.8538 24.107 71.8139 24.1296C71.7528 24.0646 71.7023 23.9685 71.6572 23.8414C71.612 23.7142 71.5721 23.5757 71.5456 23.426C71.511 23.2762 71.4845 23.1321 71.4552 22.9936C71.426 22.8495 71.3941 22.7365 71.3596 22.6517C71.3437 22.6347 71.3197 22.6206 71.2852 22.6036C71.2507 22.5867 71.2108 22.5726 71.1736 22.5726C71.1338 22.5669 71.0886 22.5669 71.0434 22.5726C70.9983 22.5782 70.9637 22.598 70.9318 22.6206L70.9026 22.663C70.892 22.6743 70.8867 22.6799 70.8867 22.6941C70.8867 22.6997 70.8814 22.711 70.8761 22.7252C70.815 22.8382 70.7645 22.9597 70.7299 23.0812C70.6954 23.2027 70.6635 23.3214 70.629 23.4429C70.5998 23.5644 70.5679 23.6831 70.5386 23.8046C70.5094 23.9261 70.4775 24.0448 70.4377 24.1663C70.3978 24.0448 70.3633 23.9148 70.3367 23.7622C70.3075 23.6125 70.2809 23.474 70.2517 23.3355C70.2225 23.1971 70.1906 23.0699 70.1507 22.9569C70.1109 22.8438 70.0604 22.7534 69.9993 22.6912C69.9887 22.6799 69.9834 22.6743 69.9781 22.6658C69.9727 22.6602 69.9674 22.6545 69.9568 22.6404C69.9276 22.6291 69.8824 22.6149 69.816 22.6093C69.7496 22.598 69.6805 22.6093 69.6141 22.6347C69.5848 22.6404 69.5583 22.6602 69.5291 22.6941L69.4892 22.7252C69.4281 22.8043 69.359 22.9286 69.282 23.1038C69.282 23.0303 69.282 22.9597 69.2873 22.8862C69.2873 22.8128 69.2926 22.7421 69.2926 22.6686C69.2926 22.6375 69.2713 22.6093 69.2262 22.5839C69.181 22.5584 69.1252 22.5415 69.0694 22.5358C69.0136 22.5302 68.9578 22.5358 68.9127 22.5471C68.8622 22.5584 68.833 22.5895 68.8277 22.6319V22.6375V22.663C68.833 22.8241 68.833 22.9823 68.833 23.1377C68.833 23.2875 68.8277 23.4373 68.8277 23.5899C68.8277 23.7396 68.8277 23.8894 68.833 24.042C68.8383 24.1918 68.8542 24.3415 68.8781 24.4998C68.9074 24.5422 68.9578 24.5648 69.0429 24.5591C69.1279 24.5591 69.1837 24.5337 69.2076 24.4857C69.2288 24.432 69.2527 24.3161 69.282 24.1494C69.3112 23.9798 69.3431 23.8075 69.3776 23.6266C69.4122 23.4457 69.452 23.2847 69.4892 23.1349C69.5291 22.9851 69.5795 22.9004 69.6353 22.8834C69.6566 22.9201 69.6752 22.9625 69.6911 23.0106C69.7071 23.0586 69.7203 23.1066 69.731 23.1547L69.7708 23.2931C69.8 23.4005 69.8213 23.5164 69.8505 23.6351C69.8798 23.7566 69.901 23.8696 69.9302 23.9827C69.9595 24.0957 69.9913 24.2003 70.0259 24.2963C70.0604 24.3924 70.1109 24.4715 70.1667 24.5365C70.1959 24.5789 70.257 24.6015 70.342 24.5959C70.4271 24.5959 70.4935 24.5535 70.544 24.4744C70.5944 24.3896 70.6396 24.2879 70.6848 24.1692C70.7246 24.0477 70.7645 23.9177 70.7964 23.7848C70.8309 23.652 70.8628 23.5136 70.8973 23.3808C70.9318 23.2479 70.9637 23.1236 71.0089 23.0134C71.0381 23.3327 71.0886 23.5955 71.155 23.8131C71.2214 24.0307 71.3011 24.1918 71.3968 24.2992C71.4924 24.4065 71.5987 24.4546 71.7129 24.4376C71.8245 24.4263 71.9547 24.3472 72.0849 24.2031C72.1248 24.1607 72.1646 24.1127 72.1965 24.0646C72.231 24.0166 72.2576 23.9798 72.2762 23.9431C72.2921 23.912 72.3054 23.8894 72.3214 23.8583C72.3214 23.8753 72.3214 23.8951 72.3214 23.912C72.332 24.0505 72.3612 24.1635 72.4011 24.2681C72.4462 24.3642 72.502 24.4235 72.5658 24.4489C72.6508 24.48 72.7411 24.4659 72.8368 24.3952C72.9271 24.3302 73.0121 24.2455 73.0839 24.155C73.1689 24.0477 73.2539 23.9148 73.3203 23.7594C73.3867 23.9685 73.4718 24.1381 73.5674 24.2709C73.6684 24.4037 73.7826 24.4687 73.9181 24.4687C74.0377 24.4687 74.1439 24.415 74.2396 24.3133C74.3352 24.2116 74.4256 24.0787 74.5212 23.929C74.5717 23.8442 74.6168 23.7594 74.6567 23.6831C74.662 23.7255 74.6673 23.7679 74.6726 23.8103C74.7019 23.9714 74.7577 24.1155 74.8294 24.2426C74.9038 24.3642 74.9994 24.4518 75.1163 24.5083C75.2279 24.562 75.3581 24.5563 75.5042 24.4913C75.6238 24.4433 75.7114 24.3585 75.7752 24.2511C75.8363 24.1381 75.8815 24.0166 75.9107 23.8781C76.0914 23.8357 76.2481 23.7396 76.3783 23.6012C76.5138 23.4627 76.6041 23.3073 76.6546 23.1377C76.6466 23.0756 76.6254 23.0388 76.5802 23.0275ZM72.611 22.1091C72.6269 22.0498 72.6561 21.9876 72.696 21.9283C72.7358 21.8689 72.781 21.8209 72.8262 21.7898C72.9005 21.7361 72.9563 21.7107 73.0068 21.7248C73.0573 21.7361 73.0971 21.7615 73.1317 21.7983C73.1662 21.835 73.1928 21.8774 73.222 21.9254C73.2512 21.9735 73.2725 22.0102 73.2964 22.0328C73.3177 22.0582 73.3416 22.0639 73.3628 22.0385C73.3841 22.0215 73.4133 21.9593 73.4532 21.8633C73.4824 21.8096 73.5196 21.7841 73.5647 21.8039C73.6099 21.8152 73.6312 21.852 73.6312 21.9113C73.5302 22.1995 73.416 22.3437 73.2884 22.3437C73.1636 22.3437 73.036 22.2306 72.9005 22.0017C72.8846 22.0017 72.866 22.0187 72.8448 22.0498C72.8235 22.0809 72.8049 22.1148 72.7943 22.1572C72.765 22.2165 72.7278 22.2419 72.6747 22.2306C72.6216 22.2165 72.6003 22.1798 72.611 22.1091ZM66.0965 23.4429C66.0407 23.6464 65.9503 23.864 65.8255 24.0985C65.8095 23.9911 65.8042 23.8696 65.7962 23.7368C65.7962 23.604 65.8069 23.4797 65.8308 23.3525C65.86 23.2253 65.8972 23.1123 65.961 23.0106C66.0168 22.9088 66.1018 22.8297 66.2027 22.7817C66.2134 22.7873 66.2187 22.793 66.232 22.7986C66.2373 22.8043 66.2479 22.8156 66.2612 22.8297C66.208 23.0275 66.1523 23.2395 66.0965 23.4429ZM67.8553 23.0106C67.8154 22.9936 67.7756 23.0219 67.7437 23.0953C67.7224 23.1603 67.6985 23.2338 67.664 23.3129C67.6348 23.3921 67.5976 23.4684 67.5577 23.5475C67.4833 23.6859 67.4116 23.8188 67.3319 23.9516C67.2522 24.0844 67.1618 24.1805 67.0556 24.2398C67.0051 24.1974 66.9599 24.1324 66.9254 24.042C66.8908 23.9516 66.859 23.8498 66.8351 23.7425C66.8138 23.6351 66.7899 23.5192 66.7793 23.4062C66.7633 23.2931 66.75 23.1886 66.75 23.0925C66.7793 23.0614 66.7899 23.0332 66.7899 23.0021C66.7846 22.971 66.7686 22.9427 66.7341 22.8947C66.7049 22.8523 66.6597 22.8043 66.6145 22.7619C66.5641 22.7195 66.5083 22.6771 66.4392 22.6404C66.3728 22.6036 66.2984 22.581 66.224 22.5613C66.1629 22.5443 66.0991 22.5443 66.0327 22.5556C65.9663 22.5669 65.8972 22.598 65.8308 22.6347C65.7644 22.6715 65.7006 22.7252 65.6501 22.7845C65.5996 22.8438 65.5492 22.923 65.5146 23.0021C65.4402 23.1575 65.3951 23.3214 65.3738 23.4825C65.3526 23.6436 65.3446 23.7962 65.3579 23.9261C65.3685 24.0646 65.3977 24.1776 65.4376 24.2822C65.4827 24.3783 65.5385 24.4376 65.6023 24.4631C65.6873 24.4941 65.7776 24.48 65.8733 24.4094C65.9636 24.3444 66.0486 24.2596 66.1204 24.1692C66.2054 24.0618 66.2904 23.929 66.3568 23.7735C66.4232 23.9827 66.5083 24.1522 66.6039 24.285C66.7049 24.4178 66.8191 24.4828 66.9546 24.4828C67.0742 24.4828 67.1804 24.4291 67.2761 24.3274C67.3717 24.2257 67.4621 24.0929 67.5577 23.9431C67.6427 23.7933 67.7224 23.6436 67.7835 23.5107C67.8446 23.3723 67.8898 23.2536 67.919 23.1434C67.9164 23.0699 67.8951 23.0275 67.8553 23.0106ZM65.8308 21.7587C65.8016 21.7333 65.7962 21.7107 65.8095 21.6739C65.8202 21.6428 65.8387 21.6146 65.8653 21.5892C65.8945 21.5637 65.9264 21.5524 65.961 21.5468C65.9955 21.5411 66.0274 21.5468 66.0513 21.5722C66.1257 21.6683 66.1921 21.77 66.2532 21.8774C66.3143 21.9904 66.3648 22.0752 66.394 22.1289C66.4232 22.1882 66.4232 22.2363 66.3887 22.2787C66.3542 22.3154 66.309 22.3097 66.2638 22.2617C66.1974 22.1882 66.1283 22.1176 66.0619 22.0328C65.9955 21.965 65.9158 21.8746 65.8308 21.7587ZM63.251 23.4797C63.1607 23.3468 63.1261 23.1971 63.1607 23.0219C63.3174 23.0162 63.4423 23.0812 63.5326 23.214C63.6177 23.3468 63.6681 23.5079 63.6788 23.6944C63.4875 23.6831 63.3467 23.6125 63.251 23.4797ZM63.5539 24.1522C63.5087 24.2172 63.4529 24.2737 63.3732 24.302H63.3679C63.2776 24.2596 63.2112 24.1748 63.166 24.0505C63.1155 23.9233 63.0863 23.7849 63.0757 23.6294C63.1554 23.7199 63.2404 23.7849 63.3413 23.8329C63.4423 23.8809 63.5433 23.9064 63.6522 23.9064C63.6336 24.0081 63.5991 24.0872 63.5539 24.1522ZM60.9848 23.522C60.9688 23.6492 60.9449 23.7679 60.9237 23.8838C60.9024 23.9968 60.8732 24.1013 60.8439 24.1889C60.8147 24.2794 60.7775 24.35 60.7377 24.3981C60.6819 24.3331 60.642 24.2285 60.6261 24.0985C60.6048 23.9657 60.5969 23.8216 60.6101 23.6775C60.6208 23.5333 60.65 23.3949 60.6899 23.2677C60.735 23.1406 60.7908 23.0445 60.8652 22.9908C60.8997 23.0021 60.9316 23.0219 60.9608 23.0501C60.9901 23.0812 61.0166 23.1095 61.0405 23.1349C61.0193 23.2677 61.0007 23.3949 60.9848 23.522ZM64.5236 23.0275C64.4785 23.0162 64.4439 23.0388 64.412 23.0925C64.3509 23.2366 64.2765 23.3581 64.1862 23.4542C64.0959 23.5503 63.9896 23.6238 63.8541 23.6718C63.8541 23.5588 63.8382 23.4429 63.8089 23.3412C63.7797 23.2338 63.7425 23.1377 63.6894 23.0416C63.6336 22.9343 63.5486 22.8382 63.437 22.7647C63.3254 22.6856 63.2059 22.6573 63.0943 22.6743C63.0836 22.6206 63.0491 22.5895 62.9933 22.5895C62.8631 22.6489 62.7675 22.7449 62.7011 22.8834C62.6559 22.9795 62.6214 23.0812 62.6001 23.1886C62.5842 23.231 62.5709 23.2677 62.5496 23.3158C62.5151 23.3949 62.4832 23.4712 62.4487 23.5503C62.4327 23.5814 62.4035 23.6351 62.3636 23.7057C62.3238 23.7792 62.2733 23.8555 62.2228 23.9403C62.167 24.025 62.1112 24.1098 62.0475 24.1861C61.9864 24.2652 61.9279 24.3302 61.8721 24.3783C61.811 24.2879 61.7605 24.155 61.726 23.9827C61.6915 23.8018 61.6649 23.6351 61.6463 23.4768C61.6304 23.2847 61.625 23.0925 61.6304 22.8947C61.6357 22.6969 61.641 22.4991 61.6596 22.3069C61.6702 22.1091 61.6888 21.917 61.6994 21.7248C61.7101 21.5326 61.7154 21.3518 61.7154 21.1766C61.7154 21.1455 61.6941 21.1172 61.649 21.0918C61.6038 21.0664 61.5533 21.0551 61.4975 21.0494C61.4417 21.0438 61.3912 21.0494 61.3408 21.0664C61.2903 21.0833 61.2611 21.1144 61.2558 21.1511C61.2053 21.3603 61.1654 21.6202 61.1362 21.9396C61.107 22.2589 61.0804 22.5839 61.0565 22.906C60.9715 22.841 60.8865 22.793 60.7961 22.7562C60.7058 22.7252 60.6314 22.7138 60.5756 22.7308C60.48 22.7619 60.3949 22.8325 60.3285 22.9399C60.2621 23.0473 60.209 23.1745 60.1718 23.3186C60.1372 23.3977 60.1054 23.4684 60.0708 23.5475C60.0549 23.5842 60.031 23.6436 59.9911 23.717C59.9566 23.7905 59.9114 23.8668 59.8609 23.9516C59.8105 24.0364 59.76 24.1126 59.6962 24.1918C59.6404 24.2709 59.5766 24.3302 59.5209 24.3726C59.4996 24.3613 59.481 24.3359 59.4651 24.2992C59.4305 24.2342 59.404 24.1381 59.3854 24.0109C59.3694 23.8838 59.3561 23.7453 59.3455 23.6012C59.3402 23.4571 59.3349 23.3186 59.3402 23.1801C59.3402 23.0473 59.3508 22.9399 59.3561 22.8551C59.3508 22.8241 59.3269 22.7958 59.2897 22.7704C59.2499 22.7449 59.1994 22.728 59.1489 22.7223C59.0931 22.7167 59.0426 22.7167 58.9922 22.7223C58.9417 22.728 58.9071 22.7534 58.8912 22.7958C58.8912 22.8014 58.8912 22.8071 58.8859 22.8128C58.8859 22.8184 58.8806 22.8241 58.8806 22.8297V22.8467C58.8699 22.906 58.8593 22.9964 58.8407 23.1123C58.8248 23.2338 58.8009 23.3581 58.7743 23.4966C58.7451 23.6351 58.7132 23.7735 58.6786 23.9177C58.6441 24.0561 58.5989 24.1748 58.5485 24.2737C58.5192 24.1833 58.4927 24.0872 58.4741 23.9798C58.4581 23.8725 58.4395 23.7622 58.4289 23.6492C58.4183 23.5418 58.413 23.4316 58.4077 23.3299C58.4023 23.2282 58.397 23.1434 58.3917 23.0784C58.3864 23.0473 58.3625 23.0247 58.312 23.0049C58.2668 22.9795 58.2164 22.9682 58.1606 22.9625C58.1048 22.9569 58.0543 22.9625 58.0091 22.9795C57.964 22.9964 57.9347 23.0332 57.9294 23.0869C57.9294 23.0925 57.9294 23.1038 57.9294 23.1179C57.9082 23.1773 57.8843 23.2451 57.8497 23.3158C57.8152 23.3949 57.7753 23.4712 57.7435 23.5503C57.7142 23.6096 57.6877 23.6718 57.6478 23.7368C57.608 23.8018 57.5681 23.8696 57.5176 23.9346C57.4725 23.9996 57.422 24.0674 57.3768 24.1268C57.3263 24.1861 57.2812 24.2398 57.236 24.2879C57.1961 24.2031 57.1563 24.0844 57.1297 23.9205C57.1005 23.7594 57.0739 23.5729 57.0553 23.3666C57.0394 23.1632 57.0261 22.9456 57.0155 22.711C57.0049 22.4765 57.0049 22.2532 57.0049 22.0385C57.1164 22.0215 57.2413 22.0074 57.3768 21.9904C57.5123 21.9791 57.6877 21.9593 57.8949 21.9424C57.9241 21.9367 57.9507 21.9254 57.9613 21.9057C57.9773 21.8887 57.9826 21.8633 57.9772 21.8407C57.9772 21.8152 57.9613 21.7926 57.9427 21.7757C57.9215 21.7587 57.8975 21.7446 57.863 21.7446C57.5761 21.77 57.2891 21.7983 56.9995 21.8407C57.0049 21.6965 57.0102 21.5637 57.0155 21.4309C57.0208 21.3037 57.0314 21.1907 57.0447 21.1003C57.0447 21.0692 57.0288 21.0353 56.9889 21.0042C56.9491 20.9731 56.9039 20.9505 56.8587 20.9392C56.8083 20.9279 56.7631 20.9279 56.7179 20.9449C56.6728 20.9618 56.6435 20.9985 56.6329 21.0522V21.0777C56.6117 21.2161 56.5984 21.3546 56.5877 21.4987C56.5771 21.6428 56.5718 21.7813 56.5585 21.9254L56.1653 21.9989C56.1095 22.03 56.0856 22.078 56.0989 22.1374C56.1095 22.1967 56.1494 22.2165 56.2105 22.2108L56.5532 22.1261C56.5426 22.4821 56.5532 22.8241 56.5745 23.1547C56.6037 23.4853 56.6409 23.7792 56.6993 24.0392C56.7339 24.2257 56.7737 24.3698 56.8109 24.4715C56.8508 24.5733 56.9066 24.627 56.9756 24.6411C57.0367 24.658 57.1058 24.6411 57.1776 24.5874C57.2519 24.5337 57.3237 24.4659 57.3981 24.3896C57.4725 24.3105 57.5336 24.2285 57.5947 24.1437C57.6505 24.059 57.6956 23.994 57.7249 23.9516C57.8046 23.8131 57.871 23.6803 57.9321 23.556C57.9374 23.5927 57.9374 23.6209 57.9427 23.6577C57.9533 23.7792 57.9719 23.8979 57.9985 24.025C58.0198 24.1466 58.0543 24.2596 58.0888 24.3557C58.1287 24.4518 58.1739 24.5309 58.2296 24.5846C58.2854 24.6383 58.3545 24.6637 58.4316 24.6496C58.482 24.6439 58.5325 24.6185 58.583 24.5761C58.6335 24.5337 58.684 24.48 58.7238 24.4263C58.769 24.367 58.8035 24.3133 58.8354 24.2511C58.8646 24.1918 58.8859 24.1381 58.8965 24.0957C58.931 24.2229 58.9815 24.3415 59.0479 24.4518C59.1144 24.5648 59.1994 24.627 59.3003 24.6383C59.38 24.6496 59.4518 24.627 59.5262 24.5789C59.6006 24.5252 59.667 24.4659 59.7334 24.3924C59.7945 24.3189 59.853 24.2426 59.9034 24.1635C59.9539 24.0844 59.9938 24.0194 60.023 23.9657C60.0389 23.9346 60.0522 23.912 60.0682 23.8809C60.0735 24.0024 60.0841 24.1155 60.1133 24.2229C60.1479 24.3557 60.2037 24.4687 60.2834 24.5535C60.3631 24.6439 60.4587 24.6863 60.5809 24.6863C60.6314 24.6863 60.6819 24.6693 60.7377 24.627C60.7935 24.5846 60.8439 24.5309 60.9024 24.4659C60.9582 24.4009 61.0087 24.3218 61.0591 24.237C61.1096 24.1522 61.1548 24.0618 61.2 23.9714C61.2345 24.1409 61.285 24.2963 61.3408 24.4461C61.3966 24.5902 61.471 24.675 61.5427 24.6976C61.6224 24.723 61.6994 24.7033 61.7898 24.6496C61.8748 24.5959 61.9598 24.5281 62.0369 24.4461C62.1166 24.3613 62.1883 24.2709 62.2521 24.1805C62.3132 24.09 62.3636 24.0194 62.3929 23.9714C62.4433 23.8866 62.4885 23.8018 62.5284 23.7255C62.5337 23.7622 62.539 23.8046 62.5443 23.8385C62.5735 23.9996 62.6293 24.1437 62.7011 24.2709C62.7754 24.3924 62.8711 24.48 62.988 24.5365C63.0996 24.5902 63.2298 24.5846 63.3759 24.5196C63.4954 24.4715 63.5831 24.3868 63.6469 24.2794C63.708 24.1663 63.7532 24.0448 63.7824 23.9064C63.963 23.864 64.1198 23.7679 64.25 23.6294C64.3855 23.491 64.4758 23.3355 64.5263 23.166C64.5927 23.0756 64.5688 23.0388 64.5236 23.0275ZM50.6524 23.5277C50.6524 23.4429 50.6631 23.3666 50.6817 23.2818C50.6976 23.1971 50.7215 23.1208 50.7481 23.0473C50.7773 22.9738 50.8145 22.9088 50.8597 22.8608C50.9048 22.9088 50.9394 22.9738 50.95 23.0586C50.9659 23.1434 50.95 23.2338 50.9101 23.3355C50.8756 23.4203 50.8304 23.491 50.7853 23.5644C50.7401 23.6379 50.6949 23.6972 50.6445 23.7509C50.6471 23.6831 50.6524 23.6125 50.6524 23.5277ZM55.6632 23.0106C55.618 22.9936 55.5835 23.0219 55.5516 23.0953C55.5303 23.1603 55.5011 23.2338 55.4666 23.3129C55.432 23.3921 55.4001 23.4684 55.3656 23.5475C55.3497 23.5786 55.3258 23.6323 55.2859 23.6972C55.2514 23.7622 55.2062 23.8357 55.1557 23.9148C55.1212 23.9572 55.0813 23.9996 55.0441 24.0364C55.0043 24.0731 54.9644 24.1098 54.9246 24.1324C54.8635 24.0674 54.813 23.9714 54.7678 23.8442C54.7227 23.717 54.6828 23.5786 54.6562 23.4288C54.6217 23.279 54.5951 23.1349 54.5659 22.9964C54.5367 22.8523 54.5048 22.7393 54.4703 22.6545C54.4543 22.6375 54.4304 22.6234 54.3959 22.6065C54.3613 22.5895 54.3215 22.5754 54.2843 22.5754C54.2444 22.5697 54.1993 22.5697 54.1541 22.5754C54.1089 22.581 54.0744 22.6008 54.0425 22.6234L54.0133 22.6658C54.0027 22.6771 53.9974 22.6828 53.9974 22.6969C53.9974 22.7025 53.992 22.7138 53.9867 22.728C53.9256 22.841 53.8751 22.9625 53.8406 23.084C53.8061 23.2055 53.7742 23.3242 53.7396 23.4457C53.7104 23.5673 53.6785 23.6859 53.6493 23.8075C53.6201 23.929 53.5882 24.0477 53.5484 24.1692C53.5085 24.0477 53.474 23.9177 53.4474 23.7651C53.4182 23.6153 53.3916 23.4768 53.3624 23.3384C53.3332 23.1999 53.3013 23.0727 53.2614 22.9597C53.2216 22.8467 53.1711 22.7562 53.11 22.6941C53.0994 22.6828 53.094 22.6771 53.0887 22.6686C53.0834 22.6602 53.0781 22.6573 53.0675 22.6432C53.0382 22.6319 52.9931 22.6178 52.9267 22.6121C52.8602 22.6008 52.7912 22.6121 52.7247 22.6375C52.6955 22.6432 52.6689 22.663 52.6397 22.6969L52.5999 22.728C52.5388 22.8071 52.4697 22.9314 52.3926 23.1066C52.3926 23.0332 52.3926 22.9625 52.398 22.8891C52.398 22.8156 52.4033 22.7449 52.4033 22.6715C52.4033 22.6404 52.382 22.6121 52.3368 22.5867C52.2917 22.5613 52.2359 22.5443 52.1801 22.5386C52.1243 22.533 52.0685 22.5386 52.0233 22.5499C51.9729 22.5613 51.9436 22.5923 51.9383 22.6347V22.6404V22.6658C51.9436 22.8156 51.9436 22.9597 51.9436 23.1038C51.9224 23.1632 51.8985 23.2366 51.8639 23.3073C51.8294 23.3864 51.7975 23.4627 51.763 23.5418C51.7284 23.6209 51.678 23.7029 51.6222 23.7933C51.5664 23.8838 51.4973 23.9742 51.4256 24.059C51.3512 24.1494 51.2741 24.22 51.1891 24.2879C51.0988 24.3528 51.0138 24.4009 50.9287 24.4263C50.849 24.3952 50.7932 24.3415 50.7587 24.2511C50.7242 24.1607 50.7029 24.0816 50.6923 24.0053C50.772 23.9318 50.8437 23.8442 50.9181 23.7396C50.9925 23.6323 51.0536 23.522 51.0988 23.4147C51.1546 23.2705 51.1785 23.1434 51.1652 23.0303C51.1546 22.9173 51.12 22.8212 51.0695 22.7478C51.0138 22.6743 50.9447 22.6262 50.8623 22.598C50.7773 22.5726 50.6923 22.581 50.6099 22.6149C50.5249 22.6517 50.4452 22.7223 50.3735 22.8325C50.307 22.9343 50.2539 23.0784 50.222 23.2649C50.2167 23.2762 50.2114 23.296 50.2061 23.3073C50.1715 23.3864 50.1317 23.4627 50.0998 23.5418C50.0706 23.6012 50.044 23.6633 50.0042 23.7283C49.9643 23.7933 49.9245 23.8611 49.874 23.9261C49.8288 23.9911 49.7783 24.059 49.7332 24.1183C49.6827 24.1776 49.6375 24.2313 49.5924 24.2794C49.5525 24.1946 49.5127 24.0759 49.4861 23.912C49.4569 23.7509 49.4303 23.5644 49.4117 23.3581C49.3958 23.1547 49.3825 22.9371 49.3718 22.7025C49.3665 22.4737 49.3612 22.2448 49.3612 22.03C49.4728 22.013 49.5977 21.9989 49.7332 21.9819C49.8687 21.9706 50.044 21.9509 50.2513 21.9339C50.2805 21.9283 50.307 21.917 50.3177 21.8972C50.3336 21.8802 50.3389 21.8548 50.3336 21.8322C50.3336 21.8067 50.3177 21.7841 50.2991 21.7672C50.2778 21.7502 50.2539 21.7361 50.2194 21.7361C49.9324 21.7615 49.6455 21.7898 49.3559 21.8322C49.3612 21.6881 49.3665 21.5552 49.3718 21.4224C49.3772 21.2953 49.3878 21.1822 49.4011 21.0918C49.4011 21.0607 49.3851 21.0268 49.3453 20.9957C49.3054 20.9646 49.2603 20.942 49.2151 20.9307C49.1646 20.9194 49.1195 20.9194 49.0743 20.9364C49.0291 20.9533 48.9999 20.9901 48.9893 21.0438V21.0692C48.968 21.2077 48.9547 21.3461 48.9441 21.4903C48.9388 21.6344 48.9282 21.7728 48.9149 21.917L48.5217 21.9904C48.4659 22.0215 48.442 22.0696 48.4552 22.1289C48.4659 22.1882 48.5057 22.208 48.5668 22.2024L48.9096 22.1176C48.8989 22.4737 48.9096 22.8156 48.9308 23.1462C48.96 23.4768 48.9972 23.7707 49.0557 24.0307C49.0902 24.2172 49.1301 24.3613 49.1673 24.4631C49.2071 24.5648 49.2629 24.6185 49.332 24.6326C49.3931 24.6496 49.4622 24.6326 49.5339 24.5789C49.6083 24.5252 49.68 24.4574 49.7544 24.3811C49.8288 24.302 49.8899 24.22 49.951 24.1353C50.0068 24.0505 50.052 23.9855 50.0812 23.9431C50.1158 23.8838 50.1476 23.8301 50.1769 23.7679C50.1822 23.8951 50.1981 24.0081 50.222 24.1155C50.2513 24.2426 50.2964 24.3557 50.3522 24.4461C50.408 24.5365 50.4771 24.5959 50.5594 24.6326C50.671 24.675 50.7906 24.6806 50.9022 24.6496C51.0217 24.6185 51.1333 24.5648 51.2343 24.4885C51.3405 24.415 51.4362 24.3274 51.5265 24.2313C51.6169 24.1353 51.6912 24.0392 51.747 23.9431C51.8135 23.8357 51.8719 23.7255 51.9224 23.6181C51.9224 23.7566 51.9224 23.8951 51.9277 24.0279C51.933 24.1776 51.949 24.3274 51.9729 24.4857C52.0021 24.5281 52.0526 24.5507 52.1376 24.545C52.2226 24.545 52.2784 24.5196 52.3023 24.4715C52.3236 24.4178 52.3475 24.302 52.3767 24.1353C52.4059 23.9685 52.4378 23.7933 52.4723 23.6125C52.5069 23.4316 52.5467 23.2705 52.5839 23.1208C52.6238 22.971 52.6743 22.8862 52.7301 22.8693C52.7513 22.906 52.7699 22.9484 52.7858 22.9964C52.8018 23.0445 52.8151 23.0925 52.8257 23.1406L52.8656 23.279C52.8948 23.3864 52.916 23.5023 52.9453 23.621C52.9745 23.7425 52.9957 23.8555 53.025 23.9685C53.0542 24.0816 53.0861 24.1861 53.1206 24.2822C53.1551 24.3783 53.2056 24.4574 53.2614 24.5224C53.2906 24.5648 53.3517 24.5874 53.4368 24.5817C53.5218 24.5817 53.5882 24.5394 53.6387 24.4602C53.6892 24.3755 53.7343 24.2737 53.7795 24.155C53.8193 24.0335 53.8592 23.9035 53.8911 23.7707C53.9256 23.6379 53.9575 23.4994 53.992 23.3666C54.0266 23.2338 54.0585 23.1095 54.1036 22.9993C54.1328 23.3186 54.1833 23.5814 54.2497 23.799C54.3162 24.0166 54.3959 24.1776 54.4915 24.285C54.5872 24.3924 54.6934 24.4404 54.8077 24.4235C54.9193 24.4122 55.0494 24.3331 55.1796 24.1889C55.2195 24.1466 55.2593 24.0985 55.2912 24.0505C55.3258 24.0024 55.3523 23.9657 55.3709 23.929C55.4559 23.7792 55.5356 23.6351 55.5968 23.4966C55.6579 23.3525 55.703 23.2253 55.7322 23.1179C55.7322 23.0699 55.7083 23.0275 55.6632 23.0106Z" fill="#162242"/>
<path d="M76.4953 2.24617C76.4953 2.93285 75.9772 3.48389 75.3342 3.48389C74.6913 3.48389 74.1732 2.93002 74.1732 2.24617C74.1732 1.55948 74.6913 1.00844 75.3342 1.00844C75.9772 1.00844 76.4953 1.56796 76.4953 2.24617ZM76.6069 2.24617C76.6069 1.50014 76.0383 0.892578 75.3396 0.892578C74.6408 0.892578 74.0723 1.50014 74.0723 2.24617C74.0723 2.99219 74.6408 3.59975 75.3396 3.59975C76.033 3.60541 76.6069 2.99784 76.6069 2.24617ZM75.5654 2.3592H75.5202L75.7514 2.76895C75.7912 2.83395 75.7673 2.92437 75.7009 2.96676C75.6345 3.00915 75.5495 2.99219 75.5096 2.92437L75.1669 2.31681C75.1562 2.29986 75.1509 2.28008 75.1509 2.26312C75.1509 2.18965 75.2014 2.13596 75.2811 2.13596H75.4458C75.5574 2.13596 75.6265 2.04553 75.6265 1.94945C75.6265 1.84772 75.5601 1.76294 75.4405 1.76294H75.1137C75.0925 1.76294 75.0739 1.7799 75.0739 1.80533V2.8509C75.0739 2.93002 75.0128 2.99502 74.9331 2.99502C74.8534 2.99502 74.7923 2.93002 74.7923 2.8509V1.78838C74.7923 1.63295 74.9224 1.50579 75.0792 1.50579H75.4857C75.7275 1.50579 75.9188 1.7036 75.9188 1.9438C75.9081 2.14443 75.7832 2.33659 75.5654 2.3592Z" fill="#162242"/>
</svg>
